<svg xmlns="http://www.w3.org/2000/svg" viewBox="0 0 799.85 352.74" preserveAspectRatio="xMidYMid meet">
<rect x="0" y="0" width="799.85" height="352.74" fill="#0a1e3f"/>
<g id="states"><path id="state-johor" class="state" data-slug="johor" data-name="Johor" data-type="state" d="M230.77 248.97L231.76 248.92L232.05 248.58L233.41 249.5L234.98 250.22L236.28 250.0L236.3 249.52L236.59 249.35L237.15 249.6L236.74 250.59L237.56 251.38L239.37 252.78L239.68 252.54L240.05 252.8L239.66 253.29L240.23 254.47L239.94 254.54L240.23 255.58L241.11 256.5L239.73 257.17L240.4 258.21L240.72 259.98L241.54 260.26L241.9 261.13L243.08 262.54L244.7 264.54L245.76 264.85L246.68 266.18L246.34 266.78L247.16 268.21L247.99 269.17L247.74 269.2L246.87 269.3L246.63 270.8L246.8 271.47L249.0 274.12L249.58 275.16L251.1 278.4L251.58 278.72L251.76 279.56L252.29 280.12L253.62 281.8L253.62 282.16L254.38 283.08L254.75 283.88L254.7 284.37L255.35 285.45L255.2 285.74L254.9 285.5L254.63 284.8L254.31 284.78L254.07 285.04L254.44 285.35L254.22 285.54L254.02 286.41L254.09 287.55L255.38 289.39L256.07 289.55L256.29 289.38L256.36 288.85L256.8 289.36L256.68 289.43L256.65 290.21L257.26 291.36L258.1 292.26L258.54 293.44L258.76 294.7L259.86 296.07L259.46 296.43L259.45 296.87L260.81 298.75L261.22 299.11L260.85 299.48L261.07 300.18L261.97 301.12L261.53 301.43L261.36 301.89L261.75 302.57L261.44 303.36L261.92 304.4L262.6 304.93L263.01 305.8L262.96 306.19L262.48 306.21L262.28 307.18L263.51 309.21L263.59 309.83L263.05 309.57L262.6 309.86L262.48 310.78L262.96 312.51L262.65 313.31L261.48 313.55L261.37 313.05L260.96 313.0L259.94 314.18L259.6 313.96L258.9 314.72L258.64 314.21L257.99 314.04L256.9 314.5L256.65 314.16L255.69 314.47L255.3 313.8L253.37 313.14L253.39 312.66L254.39 312.1L254.7 311.21L254.96 310.8L254.1 311.34L253.71 310.39L252.53 309.55L250.86 309.18L251.61 308.94L250.84 308.37L251.85 307.21L251.68 306.41L252.6 305.81L253.15 305.97L253.03 305.51L252.46 305.23L251.46 305.71L250.93 306.89L250.55 306.02L250.26 304.82L250.54 303.85L249.41 302.13L248.64 301.73L247.79 300.68L247.63 299.84L246.97 301.05L247.38 302.31L248.76 303.08L249.2 303.92L249.19 304.43L249.59 305.35L248.88 305.93L249.28 306.28L249.08 307.4L249.2 307.88L249.37 307.98L249.14 309.12L248.59 309.71L248.15 309.86L247.51 310.13L246.81 310.23L245.81 309.93L244.89 309.74L244.94 309.98L243.43 309.74L242.46 308.63L242.4 308.37L242.18 308.06L241.48 307.96L240.89 307.57L240.52 307.5L240.21 307.54L239.87 307.34L238.94 307.34L238.76 307.13L238.8 306.83L238.71 306.54L238.57 306.92L238.63 307.42L238.35 307.78L237.43 308.66L236.81 308.9L235.57 308.51L235.22 308.19L235.18 307.9L234.92 307.55L234.52 307.54L234.36 307.84L234.7 307.83L234.72 308.33L233.48 308.78L233.81 308.89L233.38 309.41L233.09 309.34L232.63 309.63L232.31 310.47L231.69 311.31L230.94 312.78L229.1 314.21L228.17 314.31L226.33 313.6L225.85 310.73L225.58 312.44L225.68 313.91L226.33 315.03L224.76 316.02L224.62 317.56L224.52 318.48L222.58 316.23L221.82 315.75L221.07 315.51L220.77 313.67L219.74 311.75L219.54 310.01L218.34 307.32L216.94 304.65L214.96 303.25L213.49 302.47L212.78 301.92L212.16 301.85L208.99 300.8L206.53 299.5L204.89 298.1L203.32 296.8L200.9 295.47L198.06 294.41L196.9 294.48L196.19 294.62L194.62 293.32L193.45 292.02L193.9 291.75L193.86 290.59L193.42 290.79L193.11 290.59L190.01 288.81L187.72 288.33L185.81 288.27L185.33 288.68L184.68 288.98L183.42 288.03L181.75 285.57L180.72 284.1L176.59 280.35L176.42 279.83L176.86 279.36L177.51 279.49L177.17 278.91L176.08 278.67L175.36 277.79L173.67 276.77L173.61 276.4L173.87 276.44L173.9 276.25L173.7 276.14L173.8 275.7L174.29 275.8L174.58 275.68L174.87 275.66L175.17 275.83L175.61 275.74L176.05 275.15L176.09 274.7L175.79 273.62L175.53 273.39L174.54 273.41L174.38 273.02L173.93 272.9L173.84 272.51L173.5 272.83L172.97 272.49L173.18 272.34L173.05 272.08L172.93 271.83L172.64 271.83L172.83 271.43L173.3 271.26L173.93 270.8L174.07 270.51L174.08 269.91L173.81 268.9L174.36 267.13L174.57 266.95L174.63 266.12L174.82 265.78L175.01 265.29L174.67 264.79L174.92 263.97L175.06 264.03L175.49 263.84L175.45 263.58L176.0 263.28L175.98 263.07L176.15 262.95L175.99 262.71L176.2 262.3L177.18 261.97L177.38 262.03L179.01 261.29L179.01 261.13L179.09 260.95L178.78 260.76L178.97 259.04L179.17 258.83L179.97 258.39L179.94 257.55L179.48 256.69L180.24 255.78L180.09 255.49L179.9 255.44L179.66 254.55L179.84 254.46L179.63 253.65L179.7 253.41L179.85 253.36L180.12 252.7L180.39 252.64L180.46 252.37L180.81 252.45L181.22 251.42L180.85 251.19L180.52 250.29L184.27 240.3L189.12 241.8L197.65 252.25L206.67 255.94L216.7 252.39L229.33 258.8L230.97 257.58L228.72 255.05L230.77 248.97Z" fill="#0d2950" stroke="#5fa8ff" stroke-width="1" stroke-linejoin="round" vector-effect="non-scaling-stroke"/><path id="state-pahang" class="state" data-slug="pahang" data-name="Pahang" data-type="state" d="M220.05 173.37L219.09 175.64L218.27 176.12L220.87 184.04L219.23 183.7L217.32 186.16L218.07 192.17L216.16 191.76L215.41 195.72L222.85 206.57L219.57 214.42L221.48 222.07L220.6 234.98L222.58 240.64L230.77 248.97L228.72 255.05L230.97 257.58L229.33 258.8L216.7 252.39L206.67 255.94L197.65 252.25L189.12 241.8L184.27 240.3L183.86 237.78L183.25 236.96L182.43 237.43L172.6 231.02L168.91 226.1L157.44 223.1L156.76 222.14L154.91 222.21L152.45 223.64L151.5 220.57L149.72 220.5L148.02 219.75L148.15 218.45L146.1 217.5L145.1 218.95L144.21 218.64L143.92 218.96L143.19 218.4L142.11 218.18L140.23 216.85L139.38 215.35L138.53 215.04L138.53 214.1L137.45 213.35L137.74 212.7L137.55 211.93L138.46 211.54L139.02 210.75L138.41 209.49L137.54 206.98L138.29 205.5L138.75 204.75L139.79 204.51L140.13 201.86L138.68 200.29L137.71 198.0L136.41 197.15L136.37 196.4L135.33 196.64L134.0 196.67L133.35 196.09L132.16 195.73L130.79 193.87L130.78 193.48L129.27 192.03L128.97 190.19L129.48 189.74L129.75 188.44L128.28 186.6L128.08 182.23L127.29 180.97L128.45 178.82L128.28 177.28L125.31 176.22L124.32 174.04L125.11 171.96L122.27 171.1L122.17 169.98L122.82 169.29L122.0 168.4L121.66 165.5L120.43 164.89L121.11 164.51L121.49 162.74L119.2 161.75L117.32 162.16L117.15 160.76L115.96 160.21L117.5 159.29L117.67 157.48L118.83 156.83L118.59 156.01L117.7 155.71L117.05 152.73L118.14 151.54L119.85 151.27L121.52 152.56L121.9 153.52L123.23 153.59L123.57 152.26L125.42 151.64L126.54 152.33L127.09 153.42L127.77 153.25L128.86 154.51L130.26 154.13L130.6 154.92L131.42 154.2L131.9 154.51L132.79 153.66L132.89 152.6L135.59 151.71L136.0 151.1L136.92 151.71L137.71 151.1L138.49 144.4L139.41 144.1L140.51 144.37L140.47 146.35L141.39 146.18L141.97 147.92L143.58 148.3L144.19 149.18L143.82 150.14L144.4 151.74L145.15 151.85L145.76 149.46L146.58 149.32L146.79 144.34L147.61 144.13L148.66 145.16L148.66 144.2L149.55 144.23L150.27 145.46L151.74 145.67L155.39 144.27L155.59 146.35L158.05 148.23L158.09 149.18L160.85 150.82L160.85 149.76L162.97 149.22L165.8 150.38L167.99 147.89L167.41 146.73L171.78 146.66L174.44 148.71L175.53 148.37L176.69 146.69L177.99 147.65L179.53 147.85L179.25 143.93L179.77 143.26L181.69 144.09L182.07 144.21L182.36 144.3L183.73 146.62L188.16 148.6L191.51 148.33L193.42 151.68L192.74 154.0L191.37 153.52L191.71 157.41L193.15 158.78L197.93 158.85L199.36 160.14L199.7 161.71L200.32 161.78L199.29 163.01L199.91 165.95L198.06 165.4L196.9 167.79L195.61 167.86L195.81 169.91L194.79 171.55L195.33 174.41L193.49 175.3L195.61 177.28L199.36 175.78L202.64 176.39L203.05 177.55L205.16 178.03L207.49 180.49L209.4 180.35L209.47 181.51L211.04 181.38L212.95 183.77L212.61 184.72L214.52 188.07L214.31 186.16L215.39 185.61L215.68 184.83L215.41 182.62L215.39 180.01L214.89 178.95L214.4 179.04L213.94 177.9L214.36 177.76L214.36 176.24L215.25 175.93L215.22 175.08L215.56 175.08L215.01 173.51L215.0 172.54L215.83 172.72L216.23 173.32L219.91 173.27L220.05 173.37Z" fill="#0d2950" stroke="#5fa8ff" stroke-width="1" stroke-linejoin="round" vector-effect="non-scaling-stroke"/><path id="state-kelantan" class="state" data-slug="kelantan" data-name="Kelantan" data-type="state" d="M153.96 70.36L157.57 72.34L161.47 71.67L163.51 72.92L165.8 73.43L167.54 75.41L173.35 87.5L176.02 90.0L173.72 92.72L170.85 95.02L170.07 96.23L169.18 97.48L168.89 97.31L168.24 97.69L168.33 98.23L168.6 98.47L168.76 100.78L169.39 101.77L169.08 103.32L169.66 105.09L169.28 105.13L169.23 105.79L168.79 106.12L168.36 106.27L168.36 106.58L168.6 106.78L168.93 107.48L168.74 108.56L169.25 109.16L169.39 110.28L168.96 110.98L168.64 110.88L168.52 111.82L168.81 111.85L170.8 113.8L171.23 113.77L171.26 114.53L170.74 114.52L170.67 114.84L170.68 116.34L170.38 116.51L170.04 120.88L170.36 121.29L170.29 122.64L169.93 122.8L169.93 123.29L171.11 123.36L171.47 123.89L172.29 123.87L173.5 125.05L173.47 125.42L174.87 126.0L175.63 126.84L174.88 128.17L174.47 128.09L174.18 128.72L174.54 128.84L175.12 131.21L174.78 131.91L174.22 131.98L174.17 132.73L175.33 134.28L174.8 134.79L175.24 135.12L174.9 135.41L174.63 137.15L175.77 137.54L176.18 136.93L178.16 137.76L178.93 138.74L179.59 138.6L180.07 139.28L181.73 139.9L181.81 140.46L181.34 141.4L181.8 141.71L182.63 143.31L182.07 144.21L181.69 144.09L179.77 143.26L179.25 143.93L179.53 147.85L177.99 147.65L176.69 146.69L175.53 148.37L174.44 148.71L171.78 146.66L167.41 146.73L167.99 147.89L165.8 150.38L162.97 149.22L160.85 149.76L160.85 150.82L158.09 149.18L158.05 148.23L155.59 146.35L155.39 144.27L151.74 145.67L150.27 145.46L149.55 144.23L148.66 144.2L148.66 145.16L147.61 144.13L146.79 144.34L146.58 149.32L145.76 149.46L145.15 151.85L144.4 151.74L143.82 150.14L144.19 149.18L143.58 148.3L141.97 147.92L141.39 146.18L140.47 146.35L140.51 144.37L139.41 144.1L138.49 144.4L137.71 151.1L136.92 151.71L136.0 151.1L135.59 151.71L132.89 152.6L132.79 153.66L131.9 154.51L131.42 154.2L130.6 154.92L130.26 154.13L128.86 154.51L127.77 153.25L127.09 153.42L126.54 152.33L125.42 151.64L123.57 152.26L123.23 153.59L121.9 153.52L121.52 152.56L119.85 151.27L118.14 151.54L118.42 150.58L117.5 149.29L116.2 148.06L116.57 146.69L118.86 146.69L118.31 144.34L119.41 143.69L120.36 141.88L119.54 140.58L119.99 139.69L121.69 139.22L121.83 136.55L120.64 133.34L121.93 132.32L122.58 129.86L123.47 127.85L123.88 123.72L125.62 119.07L127.98 117.78L128.49 115.9L130.37 114.77L132.93 115.9L136.24 114.7L137.06 113.51L136.48 112.69L136.24 109.62L136.99 108.66L136.58 106.99L132.31 106.27L133.78 102.82L132.28 101.87L132.48 99.1L134.22 97.09L134.05 94.56L134.5 94.66L135.38 94.15L135.52 93.03L136.55 93.13L136.82 92.62L137.4 92.41L138.32 93.06L138.12 93.78L140.44 95.72L140.85 95.62L140.4 94.43L141.26 92.89L142.62 92.79L142.52 92.21L143.03 92.21L143.41 91.76L143.37 90.7L144.33 90.06L145.08 90.23L146.65 88.79L146.07 86.88L145.49 86.85L146.07 84.87L146.68 84.56L146.34 83.71L148.08 81.86L148.22 80.8L150.13 79.61L152.04 78.28L154.09 74.9L153.41 73.67L153.48 71.07L153.96 70.36Z" fill="#0d2950" stroke="#5fa8ff" stroke-width="1" stroke-linejoin="round" vector-effect="non-scaling-stroke"/><path id="state-selangor" class="state" data-slug="selangor" data-name="Selangor" data-type="state" d="M135.15 252.12L134.02 252.15L133.44 251.23L123.37 247.2L119.78 241.63L114.12 240.06L113.74 237.98L113.02 237.26L115.62 233.34L117.6 231.97L117.46 228.25L115.48 226.17L114.83 220.67L114.35 219.14L112.72 216.4L110.98 215.21L108.93 214.42L108.07 212.34L106.13 209.68L104.18 206.91L102.37 202.1L98.68 198.55L96.12 197.63L94.45 194.49L92.85 193.5L90.7 193.16L90.05 191.82L90.49 189.61L96.98 188.55L96.57 190.49L98.48 190.83L98.55 191.69L97.42 192.37L98.75 193.74L99.16 192.1L101.01 191.93L101.35 192.68L102.54 192.23L102.51 194.45L104.15 192.98L103.33 195.37L106.5 195.27L110.22 196.5L112.0 196.19L111.9 198.24L113.54 198.69L116.54 197.49L116.92 196.5L115.89 194.45L115.79 192.71L118.35 192.06L118.96 193.39L121.76 194.62L123.23 196.6L125.72 197.76L127.43 196.94L129.72 193.33L130.78 193.48L130.79 193.87L132.16 195.73L133.35 196.09L134.0 196.67L135.33 196.64L136.37 196.4L136.41 197.15L137.71 198.0L138.68 200.29L140.13 201.86L139.79 204.51L138.75 204.75L138.29 205.5L137.54 206.98L138.41 209.49L139.02 210.75L138.46 211.54L137.55 211.93L137.74 212.7L137.45 213.35L138.53 214.1L138.53 215.04L139.38 215.35L140.23 216.85L142.11 218.18L143.19 218.4L143.92 218.96L144.21 218.64L145.1 218.95L145.68 219.05L146.14 219.39L145.98 219.75L146.51 220.45L146.8 221.68L146.46 222.75L147.61 225.06L146.84 226.34L147.91 230.64L147.21 230.67L146.0 232.09L145.63 233.1L143.59 238.54L136.99 238.37L137.54 246.53L137.09 247.76L136.82 247.74L136.44 248.31L136.78 249.16L136.17 249.35L135.69 250.12L136.0 250.92L135.62 250.9L135.06 250.95L134.5 251.64L135.09 251.93L135.15 252.12ZM131.41 220.58L131.03 221.55L130.5 222.09L130.31 223.91L130.25 224.3L130.62 224.85L131.71 225.59L132.11 225.22L132.56 225.39L132.59 226.2L132.39 226.45L132.56 227.85L131.86 228.38L131.92 229.09L132.47 229.03L132.45 229.52L132.88 229.67L132.94 229.93L134.86 229.6L135.17 229.3L136.01 230.14L136.01 229.19L136.93 229.18L136.91 228.3L136.76 227.73L137.11 226.67L136.29 226.19L136.23 225.19L136.93 223.9L136.25 223.81L136.17 223.1L136.91 223.24L137.39 222.48L137.1 221.63L136.42 221.18L136.55 220.34L135.93 220.31L135.38 221.22L134.58 221.1L134.58 220.83L133.12 220.57L132.76 219.78L131.41 220.58ZM133.45 233.37L133.05 233.41L132.62 233.71L132.71 234.02L133.23 234.4L133.21 234.64L133.02 234.62L132.98 235.41L133.15 235.8L133.1 236.14L132.96 236.19L132.98 236.42L132.69 236.5L132.47 236.93L132.79 237.93L133.08 237.76L133.21 238.06L133.7 237.82L133.9 237.31L134.33 237.19L134.56 236.67L134.33 236.55L134.5 236.27L134.82 236.26L134.85 235.45L136.1 235.45L136.1 234.16L135.22 234.15L135.28 233.73L134.52 233.93L134.47 233.34L134.61 233.16L134.29 233.11L133.92 233.31L133.93 233.93L133.48 233.93L133.45 233.37Z" fill="#0d2950" stroke="#5fa8ff" stroke-width="1" stroke-linejoin="round" vector-effect="non-scaling-stroke"/><path id="state-terengganu" class="state" data-slug="terengganu" data-name="Terengganu" data-type="state" d="M176.02 90.0L177.41 90.77L179.29 91.97L180.62 93.2L183.21 96.85L186.83 99.72L190.89 102.99L194.99 105.55L196.53 105.49L198.17 106.37L204.07 111.87L205.88 114.67L204.72 115.9L206.33 115.25L208.58 118.83L208.0 119.21L209.98 122.28L215.24 132.81L220.27 141.59L220.13 141.78L221.02 143.14L219.96 142.9L218.51 143.41L220.19 143.3L220.01 144.0L221.28 146.85L221.43 147.78L221.3 148.38L221.5 149.46L220.95 149.24L220.58 149.51L220.8 150.07L222.39 154.07L222.8 155.88L222.42 156.39L221.62 156.42L221.19 158.61L221.79 160.5L221.7 162.53L223.65 165.96L223.16 167.64L222.71 167.86L222.69 169.31L222.08 169.29L221.91 170.28L221.65 170.33L221.28 169.98L220.97 171.55L221.31 173.05L220.99 173.56L220.75 173.32L220.05 173.37L219.91 173.27L216.23 173.32L215.83 172.72L215.0 172.54L215.01 173.51L215.56 175.08L215.22 175.08L215.25 175.93L214.36 176.24L214.36 177.76L213.94 177.9L214.4 179.04L214.89 178.95L215.39 180.01L215.41 182.62L215.68 184.83L215.39 185.61L214.31 186.16L214.52 188.07L212.61 184.72L212.95 183.77L211.04 181.38L209.47 181.51L209.4 180.35L207.49 180.49L205.16 178.03L203.05 177.55L202.64 176.39L199.36 175.78L195.61 177.28L193.49 175.3L195.33 174.41L194.79 171.55L195.81 169.91L195.61 167.86L196.9 167.79L198.06 165.4L199.91 165.95L199.29 163.01L200.32 161.78L199.7 161.71L199.36 160.14L197.93 158.85L193.15 158.78L191.71 157.41L191.37 153.52L192.74 154.0L193.42 151.68L191.51 148.33L188.16 148.6L183.73 146.62L182.36 144.3L182.07 144.21L182.63 143.31L181.8 141.71L181.34 141.4L181.81 140.46L181.73 139.9L180.07 139.28L179.59 138.6L178.93 138.74L178.16 137.76L176.18 136.93L175.77 137.54L174.63 137.15L174.9 135.41L175.24 135.12L174.8 134.79L175.33 134.28L174.17 132.73L174.22 131.98L174.78 131.91L175.12 131.21L174.54 128.84L174.18 128.72L174.47 128.09L174.88 128.17L175.63 126.84L174.87 126.0L173.47 125.42L173.5 125.05L172.29 123.87L171.47 123.89L171.11 123.36L169.93 123.29L169.93 122.8L170.29 122.64L170.36 121.29L170.04 120.88L170.38 116.51L170.68 116.34L170.67 114.84L170.74 114.52L171.26 114.53L171.23 113.77L170.8 113.8L168.81 111.85L168.52 111.82L168.64 110.88L168.96 110.98L169.39 110.28L169.25 109.16L168.74 108.56L168.93 107.48L168.6 106.78L168.36 106.58L168.36 106.27L168.79 106.12L169.23 105.79L169.28 105.13L169.66 105.09L169.08 103.32L169.39 101.77L168.76 100.78L168.6 98.47L168.33 98.23L168.24 97.69L168.89 97.31L169.18 97.48L170.07 96.23L170.85 95.02L173.72 92.72L176.02 90.0Z" fill="#0d2950" stroke="#5fa8ff" stroke-width="1" stroke-linejoin="round" vector-effect="non-scaling-stroke"/><path id="state-perak" class="state" data-slug="perak" data-name="Perak" data-type="state" d="M90.49 189.61L87.79 189.98L84.86 187.73L84.72 181.86L87.52 182.4L88.27 177.96L83.9 173.53L80.69 173.94L78.17 166.29L78.78 160.76L80.28 160.89L80.83 154.27L78.44 153.52L79.74 149.83L81.92 148.88L79.33 148.6L78.51 144.17L80.49 143.01L78.03 142.87L77.14 139.39L77.01 138.36L75.5 139.32L73.52 138.29L73.93 136.79L74.69 136.38L73.46 135.77L71.68 136.66L70.66 132.29L68.95 130.1L68.28 128.7L67.86 127.73L68.08 127.1L68.93 126.87L69.6 125.92L70.24 126.14L74.46 125.75L75.78 126.29L75.4 126.7L75.3 127.3L77.35 128.12L78.92 127.37L80.28 125.8L80.97 123.89L82.61 123.34L84.11 120.06L85.75 119.11L86.7 116.38L90.53 116.38L92.44 115.15L92.85 108.46L96.12 107.36L97.08 103.4L95.44 102.04L98.17 99.72L98.58 96.58L96.94 93.85L99.06 93.16L101.18 95.42L102.54 95.07L103.84 96.3L106.57 101.56L110.6 98.62L112.78 96.23L111.96 94.32L113.54 91.52L116.88 91.8L119.27 88.66L123.78 88.66L124.73 87.84L125.55 87.22L128.76 85.45L129.51 86.68L130.95 88.52L132.52 88.79L132.45 91.66L133.2 93.23L134.05 94.56L134.22 97.09L132.48 99.1L132.28 101.87L133.78 102.82L132.31 106.27L136.58 106.99L136.99 108.66L136.24 109.62L136.48 112.69L137.06 113.51L136.24 114.7L132.93 115.9L130.37 114.77L128.49 115.9L127.98 117.78L125.62 119.07L123.88 123.72L123.47 127.85L122.58 129.86L121.93 132.32L120.64 133.34L121.83 136.55L121.69 139.22L119.99 139.69L119.54 140.58L120.36 141.88L119.41 143.69L118.31 144.34L118.86 146.69L116.57 146.69L116.2 148.06L117.5 149.29L118.42 150.58L118.14 151.54L117.05 152.73L117.7 155.71L118.59 156.01L118.83 156.83L117.67 157.48L117.5 159.29L115.96 160.21L117.15 160.76L117.32 162.16L119.2 161.75L121.49 162.74L121.11 164.51L120.43 164.89L121.66 165.5L122.0 168.4L122.82 169.29L122.17 169.98L122.27 171.1L125.11 171.96L124.32 174.04L125.31 176.22L128.28 177.28L128.45 178.82L127.29 180.97L128.08 182.23L128.28 186.6L129.75 188.44L129.48 189.74L128.97 190.19L129.27 192.03L130.78 193.48L129.72 193.33L127.43 196.94L125.72 197.76L123.23 196.6L121.76 194.62L118.96 193.39L118.35 192.06L115.79 192.71L115.89 194.45L116.92 196.5L116.54 197.49L113.54 198.69L111.9 198.24L112.0 196.19L110.22 196.5L106.5 195.27L103.33 195.37L104.15 192.98L102.51 194.45L102.54 192.23L101.35 192.68L101.01 191.93L99.16 192.1L98.75 193.74L97.42 192.37L98.55 191.69L98.48 190.83L96.57 190.49L96.98 188.55L90.49 189.61Z" fill="#0d2950" stroke="#5fa8ff" stroke-width="1" stroke-linejoin="round" vector-effect="non-scaling-stroke"/><path id="state-negeri-sembilan" class="state" data-slug="negeri-sembilan" data-name="Negeri Sembilan" data-type="state" d="M148.14 262.3L147.98 261.84L147.56 261.67L147.16 261.66L146.62 261.31L146.54 261.0L146.05 260.61L145.4 260.59L144.74 260.7L144.21 260.94L142.75 260.85L142.43 261.09L142.28 261.44L142.3 261.59L142.08 261.65L141.85 261.24L142.06 261.03L142.2 261.09L142.25 259.71L142.12 259.55L142.25 259.35L142.01 258.72L141.86 258.69L141.85 258.29L142.16 258.22L142.02 258.05L141.73 258.13L141.71 257.96L141.88 257.87L141.48 257.23L141.19 256.64L140.99 256.55L140.5 255.8L140.16 255.69L139.63 255.77L138.97 255.77L138.93 255.19L139.11 255.11L139.39 254.64L139.08 254.09L139.39 253.76L139.2 253.09L138.95 252.86L138.68 253.0L138.58 252.45L137.74 251.83L136.9 251.68L136.16 251.88L135.96 252.16L135.15 252.12L135.09 251.93L134.5 251.64L135.06 250.95L135.62 250.9L136.0 250.92L135.69 250.12L136.17 249.35L136.78 249.16L136.44 248.31L136.82 247.74L137.09 247.76L137.54 246.53L136.99 238.37L143.59 238.54L145.63 233.1L146.0 232.09L147.21 230.67L147.91 230.64L146.84 226.34L147.61 225.06L146.46 222.75L146.8 221.68L146.51 220.45L145.98 219.75L146.14 219.39L145.68 219.05L145.1 218.95L146.1 217.5L148.15 218.45L148.02 219.75L149.72 220.5L151.5 220.57L152.45 223.64L154.91 222.21L156.76 222.14L157.44 223.1L168.91 226.1L172.6 231.02L182.43 237.43L183.25 236.96L183.86 237.78L184.27 240.3L180.52 250.29L180.85 251.19L181.22 251.42L180.81 252.45L180.46 252.37L180.39 252.64L180.12 252.7L179.85 253.36L179.7 253.41L179.63 253.65L179.84 254.46L179.66 254.55L179.9 255.44L180.09 255.49L180.24 255.78L179.48 256.69L179.94 257.55L179.97 258.39L179.17 258.83L178.97 259.04L178.78 260.76L179.09 260.95L179.01 261.13L179.01 261.29L178.59 261.03L177.56 260.92L176.06 260.39L170.77 258.74L170.86 258.23L167.53 257.07L165.87 257.4L163.21 258.9L160.96 258.51L160.44 258.19L160.18 258.2L159.86 257.81L159.04 257.4L158.18 256.87L156.46 258.96L155.45 258.69L153.84 259.44L153.53 259.1L152.58 258.92L152.35 259.61L152.66 259.62L152.47 260.09L152.01 260.07L151.86 260.42L151.97 260.69L151.68 260.78L151.13 260.58L151.11 260.27L151.28 260.12L150.89 259.84L150.72 260.45L150.01 261.35L149.21 261.71L148.58 261.88L148.14 262.3Z" fill="#0d2950" stroke="#5fa8ff" stroke-width="1" stroke-linejoin="round" vector-effect="non-scaling-stroke"/><path id="state-sarawak" class="state" data-slug="sarawak" data-name="Sarawak" data-type="state" d="M289.33 279.02L290.15 285.3L305.44 297.86L331.11 295.4L331.39 301.96L344.77 305.23L347.23 301.41L356.79 306.33L357.61 298.68L364.16 295.95L361.7 292.67L366.62 276.83L366.62 262.36L370.44 260.72L371.26 242.96L374.81 243.78L376.72 250.07L389.56 240.78L413.59 235.04L455.38 224.94L478.87 194.08L496.35 176.05L504.54 165.95L504.27 152.84L510.28 152.84L518.2 156.11L522.29 169.5L528.03 168.68L536.77 181.51L546.05 175.51L550.42 161.85L546.87 160.21L543.6 145.74L553.97 141.09L556.77 137.82L557.39 141.23L558.21 142.8L556.98 144.78L560.6 163.35L570.22 165.4L571.73 167.45L573.84 164.99L569.47 160.35L569.13 153.59L569.75 150.38L567.29 144.17L567.22 141.84L563.4 138.5L563.19 136.66L561.96 136.11L564.42 135.15L564.35 133.79L567.42 133.45L567.77 135.9L572.0 136.72L574.39 135.9L575.82 133.99L585.66 133.04L588.25 143.55L582.51 151.74L584.29 164.03L588.8 166.36L586.47 173.32L588.8 176.6L587.29 185.06L582.79 186.29L586.34 188.61L584.56 202.13L587.98 210.6L584.02 209.92L581.29 221.8L583.88 223.71L580.47 230.81L571.45 233.68L570.22 230.26L567.22 234.22L563.53 234.91L559.98 240.23L563.26 242.01L560.12 246.51L559.85 252.66L568.04 254.98L565.72 257.71L560.12 260.03L555.07 264.4L553.56 263.17L553.43 266.59L550.83 269.05L546.05 268.09L544.55 276.15L545.78 280.79L549.74 279.83L547.97 285.02L549.88 285.84L544.96 288.71L541.55 288.85L540.32 291.03L541.41 296.08L536.77 302.91L533.9 309.88L525.43 305.92L516.15 311.24L513.69 308.51L496.21 313.02L497.03 316.7L486.38 321.07L484.33 316.57L477.23 317.25L473.0 313.02L463.57 312.33L461.8 309.88L454.02 311.11L460.16 304.41L450.46 302.23L447.87 304.41L430.39 302.37L416.87 309.74L414.0 324.9L402.81 325.85L398.16 331.86L389.56 329.95L383.28 333.64L380.82 329.68L367.44 327.49L352.01 330.5L347.64 334.73L342.59 336.23L335.89 338.28L328.25 335.55L326.47 331.73L321.01 331.59L316.5 322.17L310.49 321.07L310.22 318.62L306.13 316.57L304.76 311.52L299.16 310.15L299.3 307.42L297.25 307.96L290.15 300.59L291.38 292.53L286.05 291.58L283.59 285.57L284.55 283.25L288.1 282.57L289.33 279.02Z" fill="#0d2950" stroke="#5fa8ff" stroke-width="1" stroke-linejoin="round" vector-effect="non-scaling-stroke"/><path id="state-melaka" class="state" data-slug="melaka" data-name="Melaka" data-type="state" d="M173.67 276.77L172.96 276.33L172.39 276.11L171.58 275.99L171.2 275.97L169.49 275.14L168.5 275.09L168.18 275.13L166.99 274.55L166.77 274.25L166.09 274.0L165.27 273.89L164.77 273.38L164.5 273.31L163.63 273.12L162.63 272.56L162.38 272.68L161.82 272.46L161.3 272.38L160.81 271.85L160.21 271.68L159.62 271.25L159.13 271.04L158.74 271.0L157.81 270.89L157.4 271.04L157.05 270.94L156.01 269.06L155.02 268.12L154.66 268.06L154.41 268.19L153.74 267.22L153.46 267.17L153.22 266.92L152.79 265.61L152.08 264.67L151.28 264.36L150.52 263.68L149.91 263.4L149.28 263.37L149.17 263.51L148.2 263.28L147.95 263.02L148.03 262.95L147.79 262.45L148.14 262.3L148.58 261.88L149.21 261.71L150.01 261.35L150.72 260.45L150.89 259.84L151.28 260.12L151.11 260.27L151.13 260.58L151.68 260.78L151.97 260.69L151.86 260.42L152.01 260.07L152.47 260.09L152.66 259.62L152.35 259.61L152.58 258.92L153.53 259.1L153.84 259.44L155.45 258.69L156.46 258.96L158.18 256.87L159.04 257.4L159.86 257.81L160.18 258.2L160.44 258.19L160.96 258.51L163.21 258.9L165.87 257.4L167.53 257.07L170.86 258.23L170.77 258.74L176.06 260.39L177.56 260.92L178.59 261.03L179.01 261.29L177.38 262.03L177.18 261.97L176.2 262.3L175.99 262.71L176.15 262.95L175.98 263.07L176.0 263.28L175.45 263.58L175.49 263.84L175.06 264.03L174.92 263.97L174.67 264.79L175.01 265.29L174.82 265.78L174.63 266.12L174.57 266.95L174.36 267.13L173.81 268.9L174.08 269.91L174.07 270.51L173.93 270.8L173.3 271.26L172.83 271.43L172.64 271.83L172.93 271.83L173.05 272.08L173.18 272.34L172.97 272.49L173.5 272.83L173.84 272.51L173.93 272.9L174.38 273.02L174.54 273.41L175.53 273.39L175.79 273.62L176.09 274.7L176.05 275.15L175.61 275.74L175.17 275.83L174.87 275.66L174.58 275.68L174.29 275.8L173.8 275.7L173.7 276.14L173.9 276.25L173.87 276.44L173.61 276.4L173.67 276.77Z" fill="#0d2950" stroke="#5fa8ff" stroke-width="1" stroke-linejoin="round" vector-effect="non-scaling-stroke"/><path id="state-kedah" class="state" data-slug="kedah" data-name="Kedah" data-type="state" d="M66.8 103.39L66.39 99.2L66.9 98.76L68.47 98.83L69.8 99.79L68.68 98.15L67.89 97.91L67.24 96.92L68.37 93.03L67.21 83.54L66.01 79.88L63.86 77.22L63.25 73.84L61.06 70.63L59.73 69.33L61.3 66.53L65.06 61.89L68.13 59.57L68.2 55.2L70.79 56.29L74.55 55.95L74.55 56.98L77.21 58.14L78.03 57.45L82.47 59.98L83.97 59.57L86.57 56.77L87.18 59.36L90.32 60.05L91.0 62.16L90.73 64.62L92.1 66.53L91.35 67.76L92.3 70.56L93.33 70.29L93.33 69.27L94.62 70.49L96.88 70.02L98.31 68.17L101.25 70.08L104.39 69.06L105.75 72.61L104.04 73.36L102.41 75.41L106.02 76.84L104.59 79.85L105.34 80.26L104.86 82.85L105.68 83.54L103.64 86.88L101.04 86.4L100.02 89.82L99.06 93.16L96.94 93.85L98.58 96.58L98.17 99.72L95.44 102.04L97.08 103.4L96.12 107.36L92.85 108.46L92.44 115.15L90.53 116.38L86.7 116.38L85.75 119.11L84.11 120.06L82.61 123.34L80.97 123.89L80.28 125.8L78.92 127.37L77.35 128.12L75.3 127.3L75.4 126.7L75.78 126.29L74.46 125.75L74.48 124.5L76.46 125.32L77.28 125.05L75.98 114.47L76.19 104.43L70.45 103.95L68.47 103.06L68.27 103.75L66.8 103.39Z" fill="#0d2950" stroke="#5fa8ff" stroke-width="1" stroke-linejoin="round" vector-effect="non-scaling-stroke"/><path id="state-labuan" class="state" data-slug="labuan" data-name="Labuan" data-type="ft" d="M562.0 120.78L561.78 120.67L561.75 120.56L561.66 120.75L561.91 120.91L562.13 121.38L562.19 121.42L562.37 121.31L562.64 121.35L562.47 121.1L562.56 120.94L562.41 120.81L562.16 120.86L562.0 120.78ZM571.51 118.22L571.26 118.16L570.92 118.77L571.0 118.85L571.37 118.85L571.88 119.11L571.83 118.64L571.94 118.5L571.96 118.33L571.51 118.22ZM568.71 118.07L569.09 117.78L568.48 116.91L568.16 115.99L568.16 115.58L567.93 115.06L567.79 114.23L567.84 113.71L568.02 113.45L568.39 113.27L568.36 113.07L568.22 112.98L568.19 112.67L568.07 112.58L567.76 112.93L567.35 112.93L567.09 113.07L566.66 113.65L566.51 113.99L565.42 115.09L564.29 117.38L564.26 118.27L563.42 119.54L563.65 119.92L563.94 119.86L564.4 119.4L565.21 118.85L565.73 118.33L566.34 118.33L566.57 118.65L566.75 119.34L567.27 119.8L567.58 120.24L567.87 119.72L567.87 119.4L567.61 119.22L567.58 118.68L567.67 118.39L568.07 118.62L568.33 118.68L568.71 118.07Z" fill="#0d2950" stroke="#5fa8ff" stroke-width="1" stroke-linejoin="round" vector-effect="non-scaling-stroke"/><path id="state-penang" class="state" data-slug="penang" data-name="Penang" data-type="state" d="M69.6 125.92L71.13 123.73L70.71 123.41L70.96 121.77L71.34 121.74L71.03 121.46L70.71 119.62L70.11 118.94L70.83 118.22L69.99 116.05L70.23 115.25L68.64 113.95L67.94 112.26L68.86 110.06L68.63 106.29L67.89 104.26L66.7 103.73L66.8 103.39L68.27 103.75L68.47 103.06L70.45 103.95L76.19 104.43L75.98 114.47L77.28 125.05L76.46 125.32L74.48 124.5L74.46 125.75L70.24 126.14L69.6 125.92ZM62.69 108.22L65.4 109.22L65.23 110.1L65.71 110.74L67.14 111.32L65.76 113.1L65.6 114.82L64.82 116.7L64.61 117.79L64.0 118.68L63.98 119.4L63.61 119.38L63.1 118.44L62.57 118.22L62.21 118.58L61.52 117.9L61.06 117.95L60.96 118.34L60.42 118.19L60.11 118.34L59.73 118.2L59.34 118.27L59.13 119.01L58.74 118.14L59.13 116.99L59.72 116.85L59.15 113.51L59.68 111.2L59.32 111.12L59.32 110.8L58.78 110.57L59.02 109.11L58.59 108.68L59.27 108.39L59.25 108.66L59.7 108.66L60.07 108.88L60.02 109.26L60.76 109.22L61.9 109.02L62.69 108.22Z" fill="#0d2950" stroke="#5fa8ff" stroke-width="1" stroke-linejoin="round" vector-effect="non-scaling-stroke"/><path id="state-sabah" class="state" data-slug="sabah" data-name="Sabah" data-type="state" d="M575.82 133.99L583.2 125.53L573.09 116.51L585.38 101.49L591.94 106.41L599.04 103.13L599.58 95.48L606.96 91.39L610.51 74.73L638.09 46.05L642.74 29.94L645.74 36.22L642.74 52.88L654.48 48.24L658.03 33.49L661.85 32.12L667.32 35.95L670.05 52.06L677.69 53.97L680.7 51.79L691.08 60.53L691.08 70.9L683.7 73.91L688.62 87.56L705.82 79.37L711.01 89.48L755.8 111.87L760.17 109.14L766.18 112.96L767.82 122.52L757.17 129.35L729.04 136.45L721.39 131.26L711.01 137.82L718.39 150.11L742.97 159.94L730.68 164.31L702.82 171.14L685.89 163.22L687.25 168.68L684.66 173.59L677.56 172.91L667.32 163.49L655.84 165.81L633.31 163.35L626.76 167.45L623.07 162.94L613.1 163.08L609.14 168.54L599.58 162.94L595.9 171.14L593.3 169.91L588.8 176.6L586.47 173.32L588.8 166.36L584.29 164.03L582.51 151.74L588.25 143.55L585.66 133.04L575.82 133.99Z" fill="#0d2950" stroke="#5fa8ff" stroke-width="1" stroke-linejoin="round" vector-effect="non-scaling-stroke"/><path id="state-kuala-lumpur" class="state" data-slug="kuala-lumpur" data-name="Kuala Lumpur" data-type="ft" d="M131.41 220.58L132.76 219.78L133.12 220.57L134.58 220.83L134.58 221.1L135.38 221.22L135.93 220.31L136.55 220.34L136.42 221.18L137.1 221.63L137.39 222.48L136.91 223.24L136.17 223.1L136.25 223.81L136.93 223.9L136.23 225.19L136.29 226.19L137.11 226.67L136.76 227.73L136.91 228.3L136.93 229.18L136.01 229.19L136.01 230.14L135.17 229.3L134.86 229.6L132.94 229.93L132.88 229.67L132.45 229.52L132.47 229.03L131.92 229.09L131.86 228.38L132.56 227.85L132.39 226.45L132.59 226.2L132.56 225.39L132.11 225.22L131.71 225.59L130.62 224.85L130.25 224.3L130.31 223.91L130.5 222.09L131.03 221.55L131.41 220.58Z" fill="#0d2950" stroke="#5fa8ff" stroke-width="1" stroke-linejoin="round" vector-effect="non-scaling-stroke"/><path id="state-putrajaya" class="state" data-slug="putrajaya" data-name="Putrajaya" data-type="ft" d="M133.45 233.37L133.48 233.93L133.93 233.93L133.92 233.31L134.29 233.11L134.61 233.16L134.47 233.34L134.52 233.93L135.28 233.73L135.22 234.15L136.1 234.16L136.1 235.45L134.85 235.45L134.82 236.26L134.5 236.27L134.33 236.55L134.56 236.67L134.33 237.19L133.9 237.31L133.7 237.82L133.21 238.06L133.08 237.76L132.79 237.93L132.47 236.93L132.69 236.5L132.98 236.42L132.96 236.19L133.1 236.14L133.15 235.8L132.98 235.41L133.02 234.62L133.21 234.64L133.23 234.4L132.71 234.02L132.62 233.71L133.05 233.41L133.45 233.37Z" fill="#0d2950" stroke="#5fa8ff" stroke-width="1" stroke-linejoin="round" vector-effect="non-scaling-stroke"/><path id="state-perlis" class="state" data-slug="perlis" data-name="Perlis" data-type="state" d="M59.73 69.33L58.33 67.8L55.91 61.48L57.82 58.48L57.89 53.42L59.05 53.42L58.16 49.81L58.78 49.53L58.44 47.42L60.01 45.98L61.51 47.83L64.51 46.8L66.08 49.05L65.4 52.13L68.2 55.2L68.13 59.57L65.06 61.89L61.3 66.53L59.73 69.33Z" fill="#0d2950" stroke="#5fa8ff" stroke-width="1" stroke-linejoin="round" vector-effect="non-scaling-stroke"/></g>
</svg>
